<?xml version="1.0" encoding="utf-8"?>
<!-- Generator: Adobe Illustrator 17.0.0, SVG Export Plug-In . SVG Version: 6.00 Build 0)  -->
<!DOCTYPE svg PUBLIC "-//W3C//DTD SVG 1.1//EN" "http://www.w3.org/Graphics/SVG/1.1/DTD/svg11.dtd">
<svg version="1.1" id="icon" xmlns="http://www.w3.org/2000/svg" xmlns:xlink="http://www.w3.org/1999/xlink" x="0px" y="0px"
	 width="128px" height="128px" viewBox="0 0 128 128" enable-background="new 0 0 128 128" xml:space="preserve">
<ellipse fill="#B8CBCD" cx="60.756" cy="109.98" rx="47.667" ry="11.813"/>
<path fill="#F6E89A" d="M65.869,75.23c-7.957,0-19.166-6.354-25.925-4.662C23.785,74.615,17.5,80.167,12.424,96.167
	c-2.761,8.701,21.955,16.529,49.038,16.529s49.038-7.4,49.038-16.529c0-9-15-25.293-25.601-25.293
	C67.365,70.874,69.924,75.23,65.869,75.23z"/>
<path fill="#6E4123" d="M61.462,116.196c-25.227,0-52.038-6.845-52.038-19.53c0-4.877,0.29-6.124,1.938-8.338
	c0.473-0.635,1.061-1.426,1.874-3.057c0.74-1.481,2.541-2.085,4.024-1.345c1.482,0.74,2.084,2.541,1.345,4.024
	c-1.052,2.106-1.881,3.222-2.43,3.959c-0.637,0.854-0.751,1.009-0.751,4.756c0,5.649,17.515,13.53,46.038,13.53
	c28.523,0,46.038-7.881,46.038-13.53c0-2.407-0.134-2.601-0.458-3.065c-0.463-0.665-1.162-1.67-1.938-3.791
	c-0.569-1.557,0.231-3.279,1.787-3.848c1.552-0.568,3.278,0.231,3.848,1.787c0.509,1.392,0.874,1.916,1.227,2.424
	c1.15,1.652,1.533,2.823,1.533,6.493C113.5,109.351,86.688,116.196,61.462,116.196z"/>
<path fill="#6E4123" d="M56.975,85.64c-0.464,0-0.935-0.108-1.375-0.336c-1.472-0.761-2.048-2.57-1.287-4.043l21.096-40.813
	c0.761-1.471,2.571-2.046,4.043-1.287c1.472,0.761,2.048,2.57,1.287,4.043L59.643,84.017C59.109,85.048,58.061,85.64,56.975,85.64z"
	/>
<path fill="#FFBAB0" d="M46.563,29.671c-0.02,0.04-0.043,0.08-0.054,0.126l-0.01-0.005L46.563,29.671z"/>
<path fill="#FFBAB0" d="M61.181,37.513c0.038-0.044,0.063-0.095,0.091-0.146c-0.027,0.052-0.053,0.103-0.069,0.157L61.181,37.513z"
	/>
<path fill="#FFBAB0" d="M75.874,45.242c0.036-0.045,0.063-0.097,0.089-0.147c-0.025,0.051-0.053,0.103-0.069,0.158L75.874,45.242z"
	/>
<path fill="#FFBAB0" d="M89.852,44.715c0.025-0.045,0.04-0.093,0.056-0.14c-0.016,0.047-0.03,0.095-0.036,0.146L89.852,44.715z"/>
<path fill="#F6E89A" d="M105.547,60.061c0.697-2.309-1.555-5.574-5.331-7.56c-4.059-2.137-8.341-1.984-9.556,0.325
	c1.215-2.31-1.076-5.917-5.137-8.054c-4.059-2.135-8.33-1.978-9.545,0.331c1.215-2.309-1.086-5.924-5.145-8.059
	c-4.052-2.131-8.333-1.978-9.546,0.332c1.213-2.31-1.086-5.924-5.146-8.061c-4.01-2.108-8.255-1.975-9.504,0.276
	c8.548-15.981,28.789-22.073,44.849-13.627C107.402,24.338,113.567,44.049,105.547,60.061z"/>
<path fill="#F7BB83" d="M91.47,15.959c-8.161-4.294-21.626,5.235-30.172,21.333c1.139-2.311-1.153-5.868-5.173-7.983
	c-4.01-2.108-8.255-1.976-9.504,0.275C55.169,13.604,75.411,7.511,91.47,15.959z"/>
<path fill="#F7BB83" d="M105.531,60.053c0.698-2.31-1.553-5.574-5.331-7.562c-4.06-2.136-8.341-1.982-9.556,0.326
	c8.496-16.151,8.865-32.631,0.825-36.859C107.387,24.33,113.553,44.042,105.531,60.053z"/>
<path fill="#FFBAB0" d="M61.271,37.367c-0.027,0.052-0.053,0.103-0.091,0.146"/>
<path fill="none" d="M61.298,37.292c1.139-2.311-1.153-5.868-5.173-7.983c-4.01-2.108-8.255-1.976-9.504,0.275
	c-0.021,0.017-0.031,0.035-0.042,0.057l-0.016,0.03c-0.02,0.04-0.043,0.08-0.054,0.126"/>
<path fill="#FFBAB0" d="M75.963,45.094c-0.025,0.051-0.053,0.103-0.089,0.147"/>
<path fill="#FFBAB0" d="M61.202,37.524c0.017-0.055,0.042-0.105,0.069-0.157"/>
<path fill="#FFBAB0" d="M89.907,44.576c-0.016,0.047-0.031,0.095-0.056,0.14"/>
<path fill="#FFBAB0" d="M75.894,45.253c0.017-0.056,0.044-0.107,0.069-0.158"/>
<path fill="none" d="M89.871,44.721c0.006-0.051,0.021-0.099,0.036-0.146c0.696-2.171,4.359-2.949,8.178-1.724
	c3.552,1.141,5.982,3.611,5.73,5.705c0,0,0.007,0.013-0.006,0.019c-0.005,0.146-0.041,0.292-0.087,0.435"/>
<path fill="#FFBAB0" d="M61.181,37.513c0.038-0.07,0.08-0.151,0.117-0.222"/>
<path fill="none" d="M91.47,15.959c8.04,4.228,7.671,20.708-0.825,36.859"/>
<line fill="#FFBAB0" x1="76.025" y1="45.322" x2="76.526" y2="44.37"/>
<path fill="#6E4123" d="M105.546,63.062c-0.37,0-0.745-0.069-1.108-0.214c-1.444-0.574-2.21-2.157-1.766-3.646
	c0.075-0.521-0.987-2.54-3.853-4.047c-1.406-0.74-2.925-1.165-4.167-1.165c-0.829,0-1.249,0.188-1.357,0.27
	c-0.062,0.112-0.129,0.22-0.202,0.321c-0.845,1.229-2.485,1.64-3.847,0.925c-1.467-0.771-2.013-2.611-1.241-4.077
	c0.06-0.46-1.004-2.489-3.879-4.002c-1.401-0.738-2.916-1.161-4.154-1.161c-0.83,0-1.25,0.188-1.357,0.271
	c-0.062,0.111-0.128,0.218-0.2,0.318c-0.847,1.23-2.488,1.642-3.85,0.928c-1.467-0.771-2.013-2.61-1.241-4.077
	c0.058-0.459-1.011-2.494-3.887-4.006c-1.4-0.737-2.915-1.159-4.155-1.159c-0.829,0-1.25,0.186-1.358,0.27
	c-0.062,0.112-0.129,0.22-0.202,0.321c-0.847,1.23-2.486,1.642-3.847,0.927c-1.467-0.771-2.014-2.609-1.243-4.076
	c0.059-0.461-1.009-2.497-3.888-4.011c-1.396-0.734-2.906-1.155-4.146-1.155c-0.874,0-1.295,0.208-1.373,0.281
	c-0.799,1.439-2.595,1.943-4.041,1.154c-1.447-0.789-1.97-2.621-1.192-4.074C50.265,16.449,62.55,9.163,76.054,9.163
	c5.85,0,11.669,1.434,16.828,4.148c17.212,9.053,24.097,30.628,15.348,48.095C107.707,62.448,106.651,63.062,105.546,63.062z
	 M94.652,47.991c2.217,0,4.688,0.659,6.961,1.855c1.371,0.721,2.575,1.572,3.583,2.505c3.166-13.094-2.801-27.258-15.107-33.73
	c-4.302-2.263-9.155-3.458-14.035-3.458c-8.811,0-16.995,3.699-22.648,9.974c1.385,0.305,2.794,0.821,4.132,1.524
	c2.969,1.563,5.139,3.723,6.247,5.985c2.52-0.372,5.646,0.271,8.445,1.743c2.416,1.271,4.435,3.049,5.684,5.006
	c0.206,0.324,0.39,0.65,0.551,0.978c2.525-0.373,5.652,0.268,8.456,1.743c2.966,1.561,5.133,3.719,6.239,5.979
	C93.637,48.027,94.136,47.991,94.652,47.991z"/>
<path fill="#6E4123" d="M61.269,40.368c-0.471,0-0.948-0.111-1.394-0.346c-1.467-0.771-2.03-2.586-1.259-4.052
	C68.018,18.1,83.074,8.148,92.882,13.31c1.467,0.771,2.03,2.586,1.259,4.052c-0.772,1.465-2.586,2.029-4.052,1.259
	c-5.771-3.036-17.931,4.493-26.162,20.143C63.39,39.784,62.348,40.368,61.269,40.368z"/>
<path fill="#6E4123" d="M90.642,55.819c-0.471,0-0.948-0.111-1.394-0.346c-1.467-0.771-2.03-2.586-1.259-4.052
	c3.896-7.407,6.124-15.067,6.272-21.569c0.129-5.675-1.392-9.769-4.173-11.231c-1.467-0.772-2.03-2.585-1.259-4.052
	s2.585-2.031,4.052-1.259c4.943,2.601,7.563,8.523,7.378,16.679c-0.169,7.411-2.641,16.015-6.96,24.226
	C92.763,55.235,91.721,55.819,90.642,55.819z"/>
<path fill="#6E4123" d="M75.96,48.095c-0.482,0-0.97-0.116-1.423-0.361c-1.458-0.787-2.001-2.607-1.214-4.065L91.65,9.741
	c0.788-1.457,2.607-2.003,4.065-1.214c1.458,0.787,2.001,2.607,1.214,4.065L78.602,46.52C78.06,47.524,77.027,48.095,75.96,48.095z"
	/>
<path fill="#6E4123" d="M15.92,89.611c-0.775,0-1.551-0.299-2.138-0.896c-1.162-1.181-1.147-3.08,0.033-4.242
	C15.51,82.804,30.66,68.167,40.5,68.167c5.136,0,10.792,2.05,15.782,3.858c2.904,1.053,5.907,2.142,7.218,2.142c1.657,0,3,1.343,3,3
	c0,1.657-1.343,3-3,3c-2.364,0-5.408-1.104-9.263-2.5c-4.525-1.641-9.656-3.5-13.737-3.5c-5.574,0-16.744,8.944-22.476,14.582
	C17.44,89.324,16.68,89.611,15.92,89.611z"/>
<path opacity="0.2" fill="#6E4123" d="M14.24,95.448c-0.577,0-1.161-0.21-1.786-0.679c-2.221-1.663-0.902-4.189-0.193-5.546
	c0.583-1.115,1.776-1.714,2.949-1.599c5.531-5.318,16.816-16.07,28.184-16.07c7.211,0,11.084,1.9,13.913,3.289
	c1.615,0.792,2.502,1.206,3.448,1.206c1.657,0,3,1.343,3,3c0,1.657-1.343,3-3,3c-2.383,0-4.269-0.925-6.092-1.82
	c-2.556-1.254-5.452-2.675-11.27-2.675c-9.058,0-19.654,10.19-24.179,14.542C17.183,94.051,15.73,95.448,14.24,95.448z"/>
<path fill="#6E4123" d="M43.091,92.501c-1.657,0-3-1.343-3-3c0-1.657,1.343-3,3-3c4.852,0,11.15-4.499,17.241-8.851
	c6.938-4.956,14.112-10.08,21.025-10.08c9.66,0,26.794,12.722,29.398,20.226c0.543,1.565-0.285,3.274-1.851,3.817
	c-1.565,0.543-3.275-0.285-3.817-1.851C103.25,84.468,88.28,73.57,81.357,73.57c-4.99,0-11.369,4.557-17.537,8.963
	C56.959,87.433,49.865,92.501,43.091,92.501z"/>
<path opacity="0.2" fill="#6E4123" d="M108.5,98.168c-1.242,0-2.404-0.777-2.834-2.018c-1.83-5.273-12.857-17.262-24.166-17.262
	c-8.53,0-14.056,3.613-19.398,7.107c-4.639,3.034-9.435,6.171-15.602,6.171c-1.657,0-3-1.343-3-3c0-1.657,1.343-3,3-3
	c4.379,0,8.058-2.406,12.317-5.192c5.796-3.79,12.364-8.086,22.683-8.086c13.923,0,27.228,13.787,29.834,21.295
	c0.543,1.565-0.285,3.274-1.851,3.817C109.158,98.114,108.826,98.168,108.5,98.168z"/>
</svg>
